<svg width="48" height="49" viewBox="0 0 48 49" fill="none" xmlns="http://www.w3.org/2000/svg">
<path d="M27.8773 42.6235C29.797 42.6235 31.6899 42.6235 33.6385 42.6235C33.2059 40.425 33.6587 38.436 34.9573 36.7092C33.6876 35.4424 32.4317 34.1893 31.1389 32.8995C29.1318 34.5779 26.7196 35.5139 23.9795 35.5117C21.256 35.5096 18.8546 34.5902 16.8107 32.8814C15.5396 34.1511 14.2858 35.4034 13.0024 36.6853C14.4751 38.7112 14.9221 40.9883 14.0692 43.4425C13.4033 45.3571 12.1112 46.7495 10.2573 47.5714C6.49306 49.2405 2.13661 47.406 0.69 43.5826C-0.835333 39.5511 1.57256 34.765 6.36017 33.9647C5.96583 32.3845 5.5715 30.8072 5.17861 29.2335C2.43922 29.2703 0.173612 27.1072 0.248001 24.2646C0.309389 21.9289 2.15683 19.9478 4.53006 19.7131C6.77689 19.4907 9.1075 20.9019 9.68167 23.6182C10.7397 23.6182 11.805 23.6182 12.9259 23.6182C13.144 21.2226 14.0063 19.0725 15.5439 17.2713C14.2743 15.9995 13.0234 14.7457 11.7386 13.4587C9.70044 14.9363 7.40956 15.3834 4.94028 14.511C3.06395 13.8479 1.69606 12.5754 0.872722 10.7655C-0.821611 7.03884 0.953613 2.69395 4.73589 1.18161C8.72039 -0.410887 13.6481 1.94428 14.4541 6.73478C16.2517 6.1375 18.0493 5.54745 19.8368 4.93067C19.9733 4.88373 20.0918 4.65623 20.1366 4.49084C20.6074 2.73656 22.1422 1.51528 23.9253 1.49361C25.7258 1.47195 27.2952 2.64339 27.7907 4.37889C28.3619 6.37873 27.2519 8.50567 25.2788 9.18889C25.1242 9.24234 24.9661 9.28639 24.7942 9.33912C24.7942 10.6759 24.7942 12.0077 24.7942 13.3814C27.2143 13.5959 29.3608 14.4712 31.1627 16.0038C32.4461 14.7312 33.7049 13.4825 34.9898 12.2085C34.3528 11.357 33.8855 10.3921 33.6436 9.31456C32.7819 5.47739 35.3437 1.56584 39.2227 0.816169C43.1986 0.0477245 47.0393 2.73006 47.6373 6.69289C48.1321 9.97323 46.4551 13.0261 43.4066 14.3521C43.1003 14.485 43.0346 14.6467 43.0751 14.9472C43.2715 16.4162 43.4614 17.8866 43.6319 19.3592C43.6658 19.6539 43.7684 19.7557 44.0638 19.828C46.2817 20.3718 47.7659 22.3102 47.7204 24.5607C47.6763 26.7656 46.0947 28.6253 43.8782 29.1035C43.7178 29.1381 43.5098 29.2782 43.4542 29.4205C42.8678 30.922 42.3081 32.4336 41.7245 33.9857C41.8978 34.0362 42.0444 34.0868 42.1947 34.1222C45.8809 34.9758 48.1942 38.4396 47.6214 42.2472C47.0899 45.7803 43.7496 48.4388 40.1147 48.1557C37.6302 47.9621 35.7243 46.7582 34.4467 44.6088C34.2704 44.3127 34.0921 44.2131 33.7562 44.216C31.812 44.2318 29.8678 44.2239 27.8809 44.2239C27.5466 45.4993 26.8287 46.4772 25.6124 47.0333C24.7573 47.4233 23.8676 47.4948 22.9583 47.2515C21.1397 46.764 19.9242 45.0646 20.0354 43.1702C20.1452 41.2946 21.5998 39.7533 23.5209 39.5035C25.1112 39.2933 27.2122 40.1383 27.8773 42.6235ZM23.9376 14.945C18.7564 14.9349 14.509 19.1996 14.4888 24.4336C14.4686 29.6235 18.7398 33.9207 23.9297 33.933C29.16 33.9452 33.4579 29.7166 33.4767 24.5412C33.4962 19.2025 29.2748 14.9558 23.9376 14.945ZM35.0396 23.6254C36.1417 23.6254 37.207 23.6254 38.2802 23.6254C38.7598 21.5606 40.0266 20.2779 42.0885 19.7521C41.8827 18.1257 41.6797 16.5216 41.4746 14.901C39.4719 15.0923 37.7284 14.5861 36.2219 13.4435C34.9421 14.724 33.6905 15.9763 32.4143 17.2532C33.9491 19.061 34.828 21.2031 35.0396 23.6254ZM20.1575 6.50223C18.5534 7.03739 17.0057 7.59134 15.432 8.06078C14.7452 8.26589 14.3783 8.55117 14.2931 9.32323C14.1724 10.4159 13.6041 11.3635 12.9959 12.1941C14.2822 13.4789 15.536 14.7305 16.8093 16.0023C18.6148 14.4611 20.7642 13.5973 23.1721 13.3778C23.1721 11.9969 23.1721 10.6658 23.1721 9.33262C21.6698 8.939 20.6717 8.02178 20.1575 6.50223ZM35.0411 25.2461C34.8302 27.6778 33.9368 29.8286 32.4533 31.5836C33.749 32.8865 34.9984 34.1417 36.2609 35.4113C37.2576 34.6581 38.4196 34.1597 39.7247 33.9835C39.8944 33.9604 40.1096 33.7481 40.1775 33.574C40.7177 32.1967 41.2283 30.8079 41.7447 29.422C41.7873 29.3086 41.8039 29.1851 41.8343 29.0594C39.8799 28.4679 38.7186 27.1802 38.2752 25.2468C37.1882 25.2461 36.1374 25.2461 35.0411 25.2461ZM15.5714 31.6385C14.0049 29.8011 13.1426 27.6532 12.9252 25.2576C11.8057 25.2576 10.7404 25.2576 9.68383 25.2576C9.22594 27.0148 8.57089 27.8482 6.99717 28.7532C6.88161 28.8196 6.77978 29.0717 6.81083 29.2046C7.15894 30.6765 7.54389 32.1397 7.89417 33.6108C7.96711 33.9156 8.12961 33.9915 8.40261 34.0254C9.43178 34.1532 10.3728 34.5288 11.2417 35.0892C11.4309 35.2113 11.6165 35.3384 11.7696 35.4402C13.0451 34.1641 14.2894 32.9204 15.5714 31.6385ZM11.8447 11.0053C13.2249 9.41206 13.5167 6.079 11.2236 3.84445C9.05044 1.72617 5.56356 1.76084 3.433 3.91884C1.16161 6.21984 1.57761 9.53628 2.94117 11.0602C3.19828 10.7677 3.43011 10.4441 3.72189 10.1892C4.01222 9.93567 4.3625 9.7515 4.68533 9.53773C3.91544 7.96184 4.12272 6.482 5.25156 5.47017C6.32406 4.50817 7.90067 4.38539 9.09522 5.17406C9.67589 5.55756 10.0955 6.07467 10.3346 6.73117C10.6949 7.72062 10.5368 8.66384 10.0904 9.44889C10.7116 9.99995 11.2792 10.5033 11.8447 11.0053ZM2.874 44.2369C3.46983 43.7191 4.044 43.2207 4.63983 42.7029C3.90461 40.9898 4.15956 39.5425 5.41984 38.5646C6.56239 37.6777 8.12311 37.6654 9.27433 38.5342C10.5657 39.5085 10.8271 40.9306 10.0948 42.6986C10.6971 43.228 11.2763 43.7364 11.8541 44.2434C13.5001 42.3194 13.2061 38.951 11.1745 37.0277C9.0295 34.9968 5.66683 35.012 3.52256 37.0623C1.52489 38.9719 1.24683 42.3432 2.874 44.2369ZM45.0929 11.0009C46.7728 9.08128 46.4233 5.585 44.3021 3.70073C42.0199 1.67345 38.5503 1.84245 36.5187 4.07628C34.3448 6.46684 34.9183 9.72551 36.1251 10.9908C36.7029 10.4882 37.2763 9.98839 37.8729 9.46912C37.1391 7.71412 37.4027 6.27328 38.6904 5.30261C39.8438 4.43234 41.4031 4.44317 42.5442 5.32789C43.8096 6.30939 44.0652 7.756 43.3249 9.46695C43.9193 9.98262 44.4942 10.4809 45.0929 11.0009ZM45.0929 44.2398C46.8046 42.2125 46.3966 38.6866 44.1837 36.8291C41.8364 34.8588 38.3524 35.1477 36.3822 37.4675C34.3499 39.861 34.9761 43.0734 36.1894 44.2781C36.4364 43.9957 36.6581 43.6815 36.9405 43.4367C37.2337 43.1825 37.5854 42.9947 37.9126 42.7773C37.1362 41.0606 37.3854 39.575 38.6197 38.5898C39.7478 37.6892 41.3143 37.656 42.4734 38.5082C43.7821 39.4695 44.0544 40.8916 43.33 42.7022C43.928 43.2229 44.5007 43.7234 45.0929 44.2398ZM5.019 27.6027C6.75956 27.594 8.17367 26.151 8.15633 24.3996C8.13972 22.6757 6.71911 21.2724 4.99156 21.2738C3.24161 21.2753 1.82028 22.7024 1.82894 24.4509C1.83761 26.1972 3.26833 27.6106 5.019 27.6027ZM42.9624 21.2738C41.2168 21.2767 39.8012 22.7089 39.8106 24.4617C39.82 26.1864 41.2334 27.5955 42.9609 27.6027C44.708 27.6099 46.1416 26.1828 46.1387 24.4393C46.1366 22.6901 44.7116 21.2702 42.9624 21.2738ZM26.3542 5.4355C26.3484 4.12467 25.2665 3.063 23.9477 3.07528C22.6636 3.08684 21.6027 4.16873 21.6128 5.45645C21.6229 6.75284 22.6788 7.81089 23.9701 7.81739C25.2831 7.82317 26.3599 6.74778 26.3542 5.4355ZM26.3556 43.4251C26.3484 42.1092 25.2687 41.044 23.9549 41.0584C22.6643 41.0721 21.6113 42.1403 21.6135 43.4338C21.6157 44.7446 22.6968 45.8106 24.0142 45.8012C25.299 45.7911 26.3621 44.7121 26.3556 43.4251ZM7.36333 44.2225C6.83683 44.2225 6.30961 44.2102 5.78311 44.2253C5.13672 44.2441 4.66222 44.5475 4.36106 45.1274C4.19928 45.4394 4.213 45.6452 4.56689 45.8373C6.29444 46.7777 8.0415 46.8571 9.81961 46.0114C10.6148 45.633 10.6827 45.1715 9.97272 44.6291C9.68022 44.4059 9.26639 44.286 8.893 44.2369C8.39033 44.1719 7.87394 44.221 7.36333 44.2225ZM40.6101 46.5971C41.6046 46.5841 42.5392 46.3183 43.421 45.8258C43.746 45.6445 43.7677 45.4473 43.6196 45.152C43.3372 44.5886 42.8866 44.2492 42.2611 44.2333C41.159 44.2066 40.0547 44.2051 38.9526 44.2333C38.2838 44.2499 37.8194 44.6197 37.5479 45.2328C37.4374 45.482 37.4749 45.6467 37.7321 45.7955C38.6197 46.309 39.5701 46.5834 40.6101 46.5971ZM7.39222 10.9887C6.84911 10.9887 6.30528 10.9757 5.76217 10.9923C5.071 11.0132 4.47372 11.4386 4.31122 12.0532C4.27511 12.189 4.35817 12.4403 4.47011 12.5191C6.04456 13.6233 8.672 13.6255 10.2645 12.5234C10.3764 12.4454 10.4588 12.1919 10.4227 12.0554C10.2594 11.4401 9.66289 11.0139 8.97317 10.9923C8.44667 10.9749 7.91945 10.9887 7.39222 10.9887ZM40.6289 10.9879C40.0858 10.9879 39.5419 10.9749 38.9988 10.9916C38.3069 11.0125 37.7104 11.4364 37.5464 12.0503C37.5103 12.1861 37.5919 12.4382 37.7039 12.5169C39.274 13.6219 41.9014 13.6248 43.4983 12.5234C43.6109 12.4461 43.694 12.1926 43.6579 12.0561C43.4961 11.4415 42.8988 11.0132 42.2098 10.9916C41.6833 10.9749 41.1561 10.9887 40.6289 10.9879ZM7.36333 6.24078C6.49883 6.24367 5.79394 6.94567 5.786 7.81089C5.77806 8.666 6.48945 9.39184 7.34456 9.40123C8.22856 9.41062 8.95511 8.68623 8.94644 7.80512C8.93778 6.94278 8.22494 6.23789 7.36333 6.24078ZM42.1809 7.81089C42.1759 6.94856 41.4652 6.24078 40.6043 6.24006C39.7211 6.23934 39.0061 6.96806 39.0212 7.8535C39.0357 8.70645 39.768 9.41423 40.6231 9.4005C41.4862 9.38678 42.186 8.6725 42.1809 7.81089ZM8.94644 41.0692C8.95367 40.2076 8.25311 39.4876 7.39367 39.4746C6.51039 39.4608 5.78456 40.1795 5.78672 41.0649C5.78889 41.92 6.50895 42.6365 7.36478 42.635C8.22856 42.6343 8.93922 41.9308 8.94644 41.0692ZM40.6426 39.4746C39.7796 39.4536 39.053 40.1383 39.0212 41.0013C38.9902 41.8565 39.6813 42.6025 40.5343 42.635C41.4168 42.669 42.1651 41.9641 42.1802 41.0844C42.1961 40.2221 41.5013 39.4955 40.6426 39.4746Z" fill="#246246"/>
<path d="M21.6128 29.1446C21.7182 27.8944 21.3615 26.8003 20.6558 25.7545C19.5566 24.1237 19.9127 21.9412 21.3968 20.6556C22.8767 19.3737 25.0787 19.3693 26.5586 20.6448C28.0579 21.9376 28.4111 24.1512 27.2923 25.7834C26.6077 26.7822 26.2964 27.8331 26.3491 29.0291C26.3722 29.5505 26.3686 30.0929 26.2531 30.597C25.9916 31.7359 24.8729 32.4704 23.721 32.339C22.5683 32.2076 21.6641 31.2427 21.615 30.0835C21.6012 29.7708 21.6128 29.4573 21.6128 29.1446ZM24.8325 27.5839C24.9921 26.5699 25.4485 25.7133 25.9945 24.8799C26.646 23.8854 26.4163 22.6107 25.5207 21.848C24.6223 21.0832 23.3375 21.0832 22.4455 21.8487C21.55 22.6179 21.3217 23.8926 21.9717 24.8813C22.5192 25.7141 22.9626 26.5778 23.1345 27.5839C23.708 27.5839 24.2597 27.5839 24.8325 27.5839ZM23.2075 29.2067C23.2161 29.7614 23.0117 30.3579 23.6206 30.6432C23.8488 30.7501 24.2626 30.7061 24.4713 30.5594C24.9516 30.2229 24.753 29.6892 24.7537 29.2067C24.2186 29.2067 23.7441 29.2067 23.2075 29.2067Z" fill="#246246"/>
<path d="M23.1966 17.285C23.1966 17.0214 23.1807 16.7563 23.2002 16.4942C23.2327 16.0529 23.5534 15.7474 23.965 15.7373C24.3955 15.7264 24.7479 16.0413 24.7667 16.5057C24.7891 17.0488 24.7891 17.5941 24.766 18.1365C24.7465 18.5778 24.4128 18.884 24.0026 18.8941C23.5729 18.9049 23.2313 18.5886 23.1995 18.1249C23.1807 17.8469 23.1959 17.5652 23.1966 17.285Z" fill="#246246"/>
<path d="M21.6077 18.8681C21.5933 19.4668 20.9808 19.9045 20.5352 19.6026C20.073 19.2899 19.6635 18.8587 19.3392 18.4023C19.2208 18.2347 19.3269 17.7703 19.4909 17.5811C19.6397 17.41 20.1142 17.2836 20.2593 17.3897C20.7367 17.7407 21.134 18.2015 21.55 18.6327C21.6085 18.6926 21.5969 18.819 21.6077 18.8681Z" fill="#246246"/>
<path d="M27.041 19.7247C26.8836 19.5983 26.573 19.4647 26.4784 19.2401C26.3831 19.0133 26.4112 18.6356 26.547 18.4326C26.7889 18.0722 27.1349 17.7732 27.4714 17.4879C27.7668 17.2373 28.1157 17.2511 28.4219 17.4937C28.7057 17.7183 28.8769 18.078 28.6624 18.359C28.302 18.8306 27.8347 19.2206 27.4035 19.6366C27.353 19.6842 27.249 19.677 27.041 19.7247Z" fill="#246246"/>
</svg>
