<?xml version="1.0" encoding="UTF-8"?>
<!DOCTYPE svg PUBLIC "-//W3C//DTD SVG 1.1//EN" "http://www.w3.org/Graphics/SVG/1.1/DTD/svg11.dtd">
<!-- Creator: CorelDRAW 2019 (64-Bit) -->
<svg xmlns="http://www.w3.org/2000/svg" xml:space="preserve" width="48" height="505" version="1.1" style="shape-rendering:geometricPrecision; text-rendering:geometricPrecision; image-rendering:optimizeQuality; fill-rule:evenodd; clip-rule:evenodd"
	viewBox="0 0 8500 11000"
	xmlns:xlink="http://www.w3.org/1999/xlink">
	<defs>
		<style type="text/css">
			<![CDATA[
			.fil0 {fill:#225C42}
			]]>
		</style>
	</defs>
	<g id="Layer_x0020_1">
		<metadata id="CorelCorpID_0Corel-Layer"/>
		<path class="fil0" d="M2918.13 4337.59c-9.09,-27.83 -50.78,-367.54 47.02,-311.98 41.99,23.85 22.48,125.76 22.81,173.16 0.65,91.96 23.29,145.16 -69.83,138.82zm206.61 -181.63c64.23,-11.14 127.03,-9.31 188.94,0.38 66.49,135.66 81.78,142.23 53.51,335.87 -9.77,66.94 -27.56,109.81 -42.61,167.48 -10.29,39.41 -6.46,211.5 -230.02,168.68 -67.25,-12.88 -106.47,-33.57 -120.89,-88.3 -28.6,-108.58 -67.56,-241.61 -65.68,-358.22 116.39,27.08 46.8,-37.78 153.59,-51.48 93.58,-12.01 78.25,-81.77 169.65,-6.76 -29.61,67.83 -137.91,87.13 -122.06,223.97 50.22,-18.84 30.41,-21.16 65.11,-94.28 28.85,-60.8 36.74,-39 93.93,-74.13l4.9 -118.44c-102.39,-7.35 -134.69,-1.75 -148.37,-104.76zm170.3 -191.66l52.08 -0.58c24.58,52.86 20.09,128.09 10.15,187.72 -69.44,-57 -107.39,-82.35 -62.23,-187.13zm-57.7 144.59c-21.48,-17.53 -48.16,-12.51 -76.59,0.06 -39.73,-199.89 64.72,-330.51 76.59,-0.06zm-192.37 172.27c-20.61,-50.18 -15.57,-127.92 -16.09,-194.06 -1.13,-144.09 73.43,-236.15 55.78,70.16 -4.17,72.51 71.3,131.24 -39.69,123.89zm124.59 -415.96c201.92,-458.09 815,-147.04 637.15,387.98 -41.49,124.81 -233.45,335.26 -321.45,442.37 -47.22,57.47 -309.34,390.81 -343.83,411.93 -32.63,-19.42 -145.9,-169.78 -174.49,-206.65 -120.49,-155.37 -450.8,-507.07 -496.46,-669.75 -120.36,-428.75 283.94,-799.22 588.74,-450.37 47.02,53.82 37.83,69.55 92.44,92.93 -72.04,63.07 12.9,30.64 -79.59,42.59 -82.53,10.66 -41.89,25.2 -81.45,47.48 -116.98,65.91 -127.85,-112.85 -127.85,359.87 0,116.26 47.34,442.44 112.7,499.46 67.65,59.01 332.33,135.13 380.85,-119.13 17.33,-90.83 45.9,-142.86 56.56,-245.83 13.02,-125.7 -7.94,-177.15 -8.91,-286.72 -3.31,-376.05 -44.54,-192.11 -149.12,-280.4 -61.43,-51.86 -85.63,-30.24 -85.29,-25.79zm-648.08 577.93l596.83 741.59 45.3 0 386.14 -480.63c64.59,-76.13 125.17,-153.62 193.37,-237.28 218.55,-268.11 210.96,-734.78 -144.98,-864.53 -244.48,-89.12 -383.63,118.56 -456.71,183.47 -49.65,-42.9 -96.62,-114.46 -178.09,-160.07 -171.92,-96.25 -351.9,-26.92 -467,122.69 -154.64,200.98 -127.48,502.36 25.15,694.75z"/>
	</g>
</svg>
