<svg width="109" height="109" viewBox="0 0 109 109" fill="none" xmlns="http://www.w3.org/2000/svg">
<g clip-path="url(#clip0_102_592)">
<path d="M108.037 51.1911C96.4414 30.9352 76.7905 17.6104 54.4998 17.6104C32.2089 17.6104 12.5587 30.9352 0.962714 51.1911C0.653384 51.7333 0.0349366 53.0635 0.00172564 54.387C-0.0348915 55.7137 0.520327 57.0307 0.803046 57.5297C12.379 77.9419 32.1058 91.3897 54.4998 91.3897C76.8938 91.3897 96.6211 77.9419 108.197 57.5297C108.48 57.0307 109.035 55.7139 108.998 54.387C108.965 53.0635 108.347 51.7333 108.037 51.1911ZM54.4998 79.4711C40.8652 79.4711 29.8115 68.4173 29.8115 54.7828C29.8115 41.1482 40.8652 30.094 54.4998 30.094C68.1344 30.094 79.1885 41.1482 79.1885 54.7828C79.1885 68.4173 68.1344 79.4711 54.4998 79.4711Z" fill="white"/>
<path d="M54.4995 38.4015C51.8092 38.4015 49.3051 39.113 47.067 40.2634L53.0995 53.9346L39.2058 49.0494C38.5339 50.8386 38.1182 52.7576 38.1182 54.783C38.1182 63.8251 45.4576 71.1645 54.4997 71.1645C63.542 71.1645 70.881 63.8251 70.881 54.783C70.881 45.7409 63.542 38.4015 54.4995 38.4015Z" fill="white"/>
</g>
<defs>
<clipPath id="clip0_102_592">
<rect width="109" height="109" fill="white"/>
</clipPath>
</defs>
</svg>
