<svg width="98" height="98" viewBox="0 0 98 98" fill="none" xmlns="http://www.w3.org/2000/svg">
<g clip-path="url(#clip0_102_599)">
<path d="M49 0C21.9813 0 0 21.9813 0 49C0 76.0187 21.9813 98 49 98C76.0187 98 98 76.0187 98 49C98 21.9813 76.0187 0 49 0ZM49 90.3884C26.1784 90.3884 7.61165 71.8214 7.61165 49C7.61165 26.1784 26.1784 7.61165 49 7.61165C71.8216 7.61165 90.3884 26.1784 90.3884 49C90.3884 71.8214 71.8216 90.3884 49 90.3884Z" fill="white"/>
<path d="M48.9999 19.0292C32.4738 19.0292 19.0291 32.474 19.0291 49C19.0291 65.5261 32.4738 78.9709 48.9999 78.9709C54.5778 78.9709 59.8037 77.4374 64.281 74.7726L62.1835 72.599C61.9564 73.1287 61.6281 73.6033 61.2093 74.0072C60.3969 74.7916 59.3249 75.2248 58.1922 75.2248C56.4196 75.2196 54.8476 74.1644 54.1758 72.5369L53.502 70.9038C52.0474 71.2023 50.5418 71.3593 48.9999 71.3593C36.671 71.3593 26.6407 61.329 26.6407 49C26.6407 36.6711 36.671 26.6408 48.9999 26.6408C61.3289 26.6408 71.3591 36.6711 71.3591 49C71.3591 50.7598 71.1541 52.4724 70.7678 54.116L72.4655 54.8881C74.0694 55.6186 75.0672 57.2275 75.0087 58.9877C74.9514 60.7315 73.8667 62.2605 72.2419 62.893L74.3091 65.0357C77.2596 60.3956 78.9708 54.8941 78.9708 49C78.9708 32.474 65.526 19.0292 48.9999 19.0292Z" fill="white"/>
<path d="M49.1989 44.7318C49.8218 44.7318 50.4255 44.8624 50.9931 45.1195L58.0101 48.3119C57.6578 43.6417 53.7602 39.9612 49 39.9612C44.008 39.9612 39.9612 44.008 39.9612 49C39.9612 53.715 43.572 57.585 48.1789 58.0001L45.1813 50.7343C44.4965 49.0747 44.889 47.1965 46.1816 45.9499C46.9934 45.1652 48.0659 44.7318 49.1989 44.7318Z" fill="white"/>
<path d="M66.2306 61.4722L71.2586 59.5714C71.5516 59.4596 71.7498 59.1833 71.7602 58.8695C71.7712 58.556 71.5911 58.2668 71.3054 58.1364L49.838 48.3697C49.5471 48.2379 49.206 48.2967 48.976 48.5184C48.7464 48.7398 48.6753 49.0788 48.7971 49.374L57.7919 71.1759C57.9116 71.4666 58.1939 71.6566 58.5081 71.6568C58.7143 71.6573 58.908 71.5762 59.0502 71.4387C59.1249 71.3666 59.1858 71.2796 59.2274 71.1799L61.3066 66.2228L69.0305 74.2267C69.3283 74.5359 69.8205 74.5445 70.1297 74.2462L73.9343 70.5748C74.2433 70.2765 74.2521 69.7844 73.9536 69.4756L66.2306 61.4722Z" fill="white"/>
</g>
<defs>
<clipPath id="clip0_102_599">
<rect width="98" height="98" fill="white"/>
</clipPath>
</defs>
</svg>
