<svg width="13" height="13" viewBox="0 0 13 13" fill="none" xmlns="http://www.w3.org/2000/svg">
<path d="M8.08564 7.87891L8.75096 6.17954L9.41628 7.87891H8.08564ZM9.15935 5.13419H8.34065L6.5 9.83732H7.31871L7.77887 8.66154H9.72113L10.1813 9.83732H11L9.15935 5.13419ZM6.85663 7.12384L5.81743 6.14096L5.82893 6.12993C6.54026 5.36935 7.04836 4.49486 7.34555 3.57077H8.54389V2.78263H5.68129V2H4.86259V2.78447H2V3.56526H6.56902C6.29293 4.32033 5.86153 5.03682 5.2729 5.6633C4.89327 5.25728 4.57691 4.81637 4.32765 4.34973H3.50895C3.80805 4.98906 4.21645 5.59165 4.72838 6.13728L2.64806 8.10672L3.2271 8.66154L5.2729 6.70313L6.5441 7.92116L6.85663 7.12384Z" fill="#B7B7B7"/>
</svg>
